{"title":"Neds 2010 XviD DVDScr DTRG SAFCuk009","uid":6239157,"size":1533598968,"categoryP":"video","categoryS":"movies","magnet":"?xt=urn:btih:1fd1d54991add8330819891e1795ca228936c428&amp;dn=Neds+2010+XviD+DVDScr+DTRG+SAFCuk009&amp;tr=udp%3A%2F%2Ftracker.openbittorrent.com%3A80&amp;tr=udp%3A%2F%2Fopen.demonii.com%3A1337&amp;tr=udp%3A%2F%2Ftracker.coppersurfer.tk%3A6969&amp;tr=udp%3A%2F%2Fexodus.desync.com%3A6969","seeders":0,"leechers":1,"uploader":"hshahaz","files":2,"time":1299998407,"description":"[img]http://img847.imageshack.us/img847/3272/nedsnoneducateddeliquen.jpg[/img]\n\n[code]Format : AVI\nFormat/Info : Audio Video Interleave\nFile size : 1.43 GiB\nDuration : 2h 4mn\nOverall bit rate : 1 643 Kbps\nWriting application : Nandub v1.0rc2\nWriting library : VirtualDub build 32839/release\n\nVideo\nID : 0\nFormat : MPEG-4 Visual\nFormat profile : Advanced Simple@L5\nFormat settings, BVOP : Yes\nFormat settings, QPel : No\nFormat settings, GMC : No warppoints\nFormat settings, Matrix : Custom\nCodec ID : XVID\nCodec ID/Hint : XviD\nDuration : 2h 4mn\nBit rate : 1 525 Kbps\nWidth : 720 pixels\nHeight : 304 pixels\nDisplay aspect ratio : 2.35:1\nFrame rate : 23.976 fps\nColor space : YUV\nChroma subsampling : 4:2:0\nBit depth : 8 bits\nScan type : Progressive\nBits/(Pixel*Frame) : 0.291\nStream size : 1.33 GiB (93%)\nWriting library : XviD 1.2.1 (UTC 2008-12-04)\n\nAudio\nID : 1\nFormat : MPEG Audio\nFormat version : Version 1\nFormat profile : Layer 3\nMode : Joint stereo\nMode extension : MS Stereo\nCodec ID : 55\nCodec ID/Hint : MP3\nDuration : 2h 4mn\nBit rate mode : Constant\nBit rate : 32.0 Kbps\nChannel(s) : 2 channels\nSampling rate : 48.0 KHz\nStream size : 93.8 MiB (6%)\nAlignment : Aligned on interleaves\nInterleave, duration : 24 ms (0.58 video frame)\nInterleave, preload duration : 153 ms\nWriting library : LAME3.98.4\n[/code]\n\n[img]http://img857.imageshack.us/img857/4254/vlcsnap2011031208h24m33.png[/img]\n[img]http://img268.imageshack.us/img268/1791/vlcsnap2011031208h24m52.png[/img]\n[img]http://img847.imageshack.us/img847/7609/vlcsnap2011031208h24m40.png[/img]","torrent":{"xt":"urn:btih:1fd1d54991add8330819891e1795ca228936c428","amp;dn":"Neds+2010+XviD+DVDScr+DTRG+SAFCuk009","amp;tr":["udp%3A%2F%2Ftracker.openbittorrent.com%3A80","udp%3A%2F%2Fopen.demonii.com%3A1337","udp%3A%2F%2Ftracker.coppersurfer.tk%3A6969","udp%3A%2F%2Fexodus.desync.com%3A6969"],"infoHash":"1fd1d54991add8330819891e1795ca228936c428","infoHashBuffer":{"type":"Buffer","data":[31,209,213,73,145,173,216,51,8,25,137,30,23,149,202,34,137,54,196,40]},"announce":[],"urlList":[]}}